Arabic Audio.
No subs.

      Format : AVI
      Format/Info : Audio Video Interleave
      File size : 362 MiB
      Duration : 56mn 41s
      Overall bit rate : 893 Kbps
   Video
      Format : MPEG-4 Visual
      Format settings, BVOP : Yes
      Format settings, QPel : No
      Format settings, GMC : No warppoints
      Format settings, Matrix : Default
      Muxing mode : Packed bitstream
      Codec ID : DX50
      Codec ID/Hint : DivX 5
      Duration : 56mn 41s
      Bit rate : 780 Kbps
      Width : 640 pixels
      Height : 480 pixels
      Display aspect ratio : 4/3
      Frame rate : 25.000 fps
      Resolution : 24 bits
      Colorimetry : 4:2:0
      Scan type : Progressive
      Bits/(Pixel*Frame) : 0.102
      Stream size : 316 MiB (87%)
      Writing library : DivX 6.8.3 (UTC 2008-06-07)
   Audio
      Format : AC-3
      Format/Info : Audio Coding 3
      Codec ID : 2000
      Duration : 56mn 41s
      Bit rate mode : Constant
      Bit rate : 32.0 Kbps
      Channel(s) : 1 channel
      Channel positions : C
      Sampling rate : 32.0 KHz
      Stream size : 13.0 MiB (4%)
      Alignment : Aligned on interleaves
      Interleave, duration : 1001 ms (25.04 video frames)